<?xml version="1.0" encoding="utf-8"?>
<!-- Generator: Adobe Illustrator 24.1.0, SVG Export Plug-In . SVG Version: 6.00 Build 0)  -->
<svg version="1.0" id="Layer_1" xmlns="http://www.w3.org/2000/svg" xmlns:xlink="http://www.w3.org/1999/xlink" x="0px" y="0px"
	 viewBox="0 0 1366 768" style="enable-background:new 0 0 1366 768;" xml:space="preserve">
<style type="text/css">
	.st0{fill:#2F2E51;}
	.st1{fill:#66B037;}
</style>
<rect x="-17" class="st0" width="1396.84" height="790"/>
<path class="st1" d="M911.49,665.53c0,0-69.84,1.03-72.92,124.47l-185.9-1.03c0,0,2.05-24.69-129.41-21.6s-205.42,1.03-239.31-39.09
	s-33.89-460.83-212.61-351.8c0,0-71.9,33.95-88.33,57.6V208.82c0,0,46.22-5.14,103.74-26.74s159.2-82.29,217.74-78.18
	c58.54,4.11,85.25,27.77,100.65,119.32c15.41,91.55,22.6,236.59,64.71,252.02S774.88,366.2,789.26,0h148.93
	c0,0,63.68,103.89,163.31,163.55s133.52,66.86,176.66,60.69c43.14-6.17,93.46-156.35,88.33-224.24H1386v368.26
	c0,0-21.57,331.22-112.98,404.26S1026.24,656.05,911.49,665.53"/>
</svg>
